<svg xmlns="http://www.w3.org/2000/svg" width="300" height="140" viewBox="0 0 300 140" fill="none">
  <g stroke-linecap="round" stroke-linejoin="round" stroke-width="4">
    <path d="M28 53 59 22c5-5 13-5 18 0l19 20 19-17c6-6 15-6 21 0l32 31c5 5 2 14-5 14H39c-10 0-17-10-11-17Z" stroke="#5B9BA0"/>
    <path d="m81 43 15 12 19-17 16 15c9 9 22 13 34 9l12-4" stroke="#568C68"/>
    <path d="m65 54 11-12 9 12m-20-1v11m9-11v11" stroke="#5B9BA0"/>
    <path d="M165 61c9 9 25 11 38 3" stroke="#568C68"/>
  </g>
  <text x="150" y="101" text-anchor="middle" fill="#5B9BA0" font-family="Arial, sans-serif" font-size="20" font-weight="400" letter-spacing="8">SHINTOQ</text>
  <path d="M76 116h148" stroke="#568C68" stroke-width="1" opacity=".55"/>
</svg>
